HIERARCHY
ROOT Hips
{
	OFFSET 0.000000 95.729000 0.000000
	CHANNELS 6 Xposition Yposition Zposition Yrotation Xrotation Zrotation
	JOINT RightUpLeg
	{
		OFFSET -9.625000 -1.639000 0.000000
		CHANNELS 3 Yrotation Xrotation Zrotation
		JOINT RightLeg
		{
			OFFSET 0.000000 -41.481000 0.000000
			CHANNELS 3 Yrotation Xrotation Zrotation
			JOINT RightFoot
			{
				OFFSET 0.000000 -43.120000 0.000000
				CHANNELS 3 Yrotation Xrotation Zrotation
				End Site
				{
					OFFSET 0.000000 -7.850000 17.850000
				}
			}
		}
	}
	JOINT LeftUpLeg
	{
		OFFSET 9.625000 -1.639000 0.000000
		CHANNELS 3 Yrotation Xrotation Zrotation
		JOINT LeftLeg
		{
			OFFSET 0.000000 -43.120000 0.000000
			CHANNELS 3 Yrotation Xrotation Zrotation
			JOINT LeftFoot
			{
				OFFSET 0.000000 -43.120000 0.000000
				CHANNELS 3 Yrotation Xrotation Zrotation
				End Site
				{
					OFFSET 0.000000 -7.850000 17.850000
				}
			}
		}
	}
	JOINT Spine
	{
		OFFSET 0.000000 16.395000 0.000000
		CHANNELS 3 Yrotation Xrotation Zrotation
		JOINT Spine1
		{
			OFFSET 0.000000 10.023000 0.000000
			CHANNELS 3 Yrotation Xrotation Zrotation
			JOINT Spine2
			{
				OFFSET 0.000000 10.437000 0.000000
				CHANNELS 3 Yrotation Xrotation Zrotation
				JOINT Spine3
				{
					OFFSET 0.000000 10.023000 0.000000
					CHANNELS 3 Yrotation Xrotation Zrotation
					JOINT Neck
					{
						OFFSET 0.000000 10.713000 0.000000
						CHANNELS 3 Yrotation Xrotation Zrotation
						JOINT Head
						{
							OFFSET 0.000000 9.720000 0.000000
							CHANNELS 3 Yrotation Xrotation Zrotation
							End Site
							{
								OFFSET 0.000000 16.450000 0.000000
							}
						}
					}
					JOINT RightShoulder
					{
						OFFSET -3.275000 7.142000 0.000000
						CHANNELS 3 Yrotation Xrotation Zrotation
						JOINT RightArm
						{
							OFFSET -13.100000 0.000000 0.000000
							CHANNELS 3 Yrotation Xrotation Zrotation
							JOINT RightForeArm
							{
								OFFSET -27.250000 0.000000 0.000000
								CHANNELS 3 Yrotation Xrotation Zrotation
								JOINT RightHand
								{
									OFFSET -26.750000 0.000000 0.000000
									CHANNELS 3 Yrotation Xrotation Zrotation
									End Site
									{
										OFFSET -3.479000 0.532000 0.778000
									}
								}
							}
						}
					}
					JOINT LeftShoulder
					{
						OFFSET 3.275000 7.142000 0.000000
						CHANNELS 3 Yrotation Xrotation Zrotation
						JOINT LeftArm
						{
							OFFSET 13.100000 0.000000 0.000000
							CHANNELS 3 Yrotation Xrotation Zrotation
							JOINT LeftForeArm
							{
								OFFSET 27.250000 0.000000 0.000000
								CHANNELS 3 Yrotation Xrotation Zrotation
								JOINT LeftHand
								{
									OFFSET 26.750000 0.000000 0.000000
									CHANNELS 3 Yrotation Xrotation Zrotation
									End Site
									{
										OFFSET 3.479000 0.532000 0.778000
									}
								}
							}
						}
					}
				}
			}
		}
	}
}
MOTION
Frames: 29
Frame Time: 0.041667
64.34 48.73 98.09 -144.35 14.86 -0.94 -148.43 -68.96 151.55 180.0 40.4 180.0 -7.79 -22.36 16.42 -97.48 -73.84 113.35 -180.0 47.62 -180.0 -9.72 -3.99 -0.15 4.22 17.08 -0.87 1.05 4.4 -0.33 1.72 7.2 -0.5 0.04 -1.54 -0.26 0.04 -1.56 -0.27 3.54 -29.1 -6.0 19.66 -11.07 -8.96 39.71 -73.59 72.7 10.6 21.43 -6.75 21.45 25.26 -38.89 -8.44 -4.15 -11.42 -31.43 -20.0 -28.25 -38.9 65.64 -9.96 13.95 -5.85 31.12
64.61 47.77 97.57 -144.05 13.91 -1.01 -148.09 -68.83 150.94 180.0 38.71 180.0 -7.42 -22.2 16.05 -95.9 -72.51 112.24 180.0 46.5 180.0 -10.94 -3.85 -0.15 4.1 17.66 -0.71 1.03 4.54 -0.29 1.68 7.42 -0.43 0.04 -1.56 -0.27 0.04 -1.58 -0.27 3.63 -29.54 -6.09 20.19 -11.57 -9.26 44.85 -73.26 68.0 12.55 23.09 -6.56 22.33 25.8 -37.97 -8.16 -4.85 -11.44 -31.72 -20.11 -28.07 -39.59 65.89 -10.59 14.14 -5.45 31.05
64.95 46.81 96.97 -143.8 12.95 -1.09 -147.59 -68.77 150.16 180.0 36.95 -180.0 -7.02 -22.2 15.71 -94.21 -71.09 111.16 180.0 45.44 180.0 -12.06 -3.74 -0.08 4.02 18.23 -0.55 1.0 4.69 -0.25 1.65 7.65 -0.37 0.04 -1.58 -0.27 0.04 -1.6 -0.27 3.69 -29.96 -6.14 20.84 -12.06 -9.62 50.21 -72.84 63.02 14.59 25.07 -6.75 22.87 25.8 -37.18 -7.83 -5.61 -11.48 -31.99 -20.32 -27.94 -40.48 66.23 -11.45 14.35 -5.01 30.99
65.25 45.83 96.37 -143.58 11.99 -1.17 -146.66 -68.69 148.88 180.0 35.15 180.0 -6.59 -22.29 15.21 -94.29 -70.17 112.1 180.0 44.32 -180.0 -11.94 -2.49 1.05 6.3 14.1 -0.97 1.58 3.66 -0.38 2.58 6.1 -0.58 -0.12 -1.31 -0.18 -0.12 -1.32 -0.18 -0.69 -24.25 -3.27 17.62 -6.45 -5.21 55.58 -72.29 57.97 24.95 35.27 -4.07 10.87 14.6 -38.65 -10.67 1.25 -10.29 -32.27 -20.62 -27.82 -40.69 66.71 -9.68 14.44 -4.1 28.96
65.59 44.95 95.76 -143.41 11.02 -1.24 -145.36 -68.56 147.39 -180.0 33.57 -180.0 -6.36 -22.16 14.71 -92.16 -68.66 110.54 -180.0 43.46 180.0 -13.21 -2.54 0.99 6.56 14.16 -0.96 1.64 3.69 -0.39 2.68 6.14 -0.58 -0.15 -1.29 -0.16 -0.14 -1.3 -0.16 -1.34 -23.86 -2.81 17.86 -6.47 -4.91 60.62 -71.65 53.29 26.9 36.66 -4.54 7.53 11.49 -38.1 -10.69 1.31 -10.12 -32.53 -21.01 -27.67 -41.79 66.95 -10.66 14.79 -3.54 28.89
65.85 44.08 95.17 -143.24 10.08 -1.29 -144.24 -68.47 146.15 180.0 32.03 180.0 -6.22 -22.0 14.36 -90.44 -67.26 109.39 -180.0 42.58 -180.0 -14.24 -2.53 1.06 6.51 14.72 -0.81 1.63 3.83 -0.35 2.67 6.37 -0.52 -0.16 -1.31 -0.16 -0.15 -1.32 -0.16 -1.47 -24.19 -2.76 18.57 -7.14 -5.26 64.85 -71.16 49.4 28.72 37.5 -4.93 7.93 12.39 -37.06 -10.3 0.56 -10.29 -32.88 -21.42 -27.44 -42.78 67.04 -11.58 15.21 -3.0 28.91
66.03 43.36 94.66 -143.01 9.21 -1.31 -143.02 -68.34 144.8 180.0 30.79 -180.0 -6.16 -21.63 13.91 -89.15 -66.24 108.56 180.0 41.84 180.0 -14.84 -2.4 1.34 6.43 15.24 -0.69 1.6 3.97 -0.33 2.63 6.58 -0.48 -0.17 -1.32 -0.16 -0.16 -1.33 -0.16 -1.64 -24.52 -2.69 19.24 -7.84 -5.61 68.39 -70.8 46.15 30.69 38.2 -5.07 7.97 12.92 -36.22 -9.89 -0.09 -10.57 -33.25 -21.87 -27.17 -43.66 66.99 -12.38 15.69 -2.5 29.05
66.16 42.85 94.21 -142.74 8.49 -1.29 -141.86 -68.2 143.49 180.0 29.75 180.0 -6.16 -21.23 13.43 -87.94 -65.5 107.73 180.0 41.36 180.0 -15.3 -2.24 1.64 6.3 15.67 -0.59 1.57 4.08 -0.3 2.58 6.75 -0.44 -0.18 -1.34 -0.16 -0.17 -1.35 -0.16 -1.84 -24.82 -2.61 19.9 -8.54 -5.98 71.31 -70.57 43.38 32.38 38.83 -5.2 14.62 15.95 -35.34 -9.48 -0.72 -11.01 -33.52 -21.05 -27.2 -42.9 66.2 -10.74 15.58 -1.44 28.35
66.15 42.52 93.88 -142.4 7.77 -1.29 -140.71 -68.28 142.14 -180.0 28.92 -180.0 -6.19 -20.83 13.06 -86.62 -65.09 106.53 180.0 41.02 180.0 -15.56 -2.16 1.9 6.14 16.11 -0.48 1.53 4.19 -0.28 2.52 6.92 -0.39 -0.19 -1.35 -0.15 -0.18 -1.37 -0.16 -2.07 -25.11 -2.51 20.55 -9.2 -6.37 73.65 -70.41 40.99 34.86 40.04 -4.98 14.52 15.59 -34.38 -9.15 -1.22 -11.46 -33.75 -20.33 -27.14 -42.17 65.15 -9.23 15.47 -0.17 27.84
66.09 42.34 93.66 -142.1 7.23 -1.32 -139.64 -68.39 140.98 180.0 28.27 -180.0 -6.37 -20.49 12.92 -85.75 -64.82 105.65 -180.0 40.79 -180.0 -15.7 -1.99 2.06 7.24 14.16 -1.16 1.8 3.71 -0.45 2.92 6.2 -0.68 -0.28 -1.21 -0.07 -0.28 -1.21 -0.07 -4.55 -21.98 -0.53 19.2 -7.18 -3.72 75.85 -70.47 38.54 33.25 39.08 -5.74 17.67 17.8 -34.49 -10.43 2.07 -10.44 -33.92 -19.68 -27.11 -41.54 63.85 -7.95 15.39 1.3 27.5
66.03 42.39 93.52 -141.85 6.86 -1.36 -138.47 -68.58 139.78 -180.0 27.87 180.0 -6.56 -20.22 12.85 -84.84 -64.88 104.7 -180.0 40.84 180.0 -15.55 -1.87 2.23 7.3 14.04 -1.24 1.81 3.68 -0.47 2.94 6.16 -0.71 -0.3 -1.2 -0.05 -0.3 -1.2 -0.05 -5.12 -21.72 -0.05 19.6 -7.17 -3.81 78.2 -70.78 35.73 31.83 38.14 -6.22 20.91 20.12 -34.62 -10.37 2.18 -10.46 -34.06 -19.08 -27.17 -41.05 62.32 -6.94 15.37 2.94 27.35
65.99 42.61 93.39 -141.69 6.6 -1.39 -137.51 -68.9 138.78 180.0 27.72 180.0 -6.61 -19.82 12.82 -83.42 -64.98 103.18 -180.0 41.11 180.0 -15.52 -2.04 2.32 7.22 14.19 -1.18 1.79 3.72 -0.45 2.91 6.21 -0.69 -0.31 -1.21 -0.05 -0.31 -1.22 -0.05 -5.35 -21.99 0.13 20.38 -7.53 -4.62 80.46 -71.18 32.78 34.52 39.75 -5.66 17.74 17.45 -33.83 -10.12 1.65 -10.64 -34.34 -19.75 -27.02 -41.55 61.22 -8.01 16.1 4.08 28.41
65.92 42.95 93.3 -141.59 6.45 -1.4 -136.64 -69.39 137.95 180.0 27.82 180.0 -6.57 -19.52 13.01 -82.01 -65.25 101.62 180.0 41.47 180.0 -15.28 -2.23 2.41 7.17 14.28 -1.14 1.78 3.74 -0.44 2.89 6.25 -0.67 -0.32 -1.23 -0.04 -0.32 -1.24 -0.04 -5.59 -22.26 0.34 21.16 -7.9 -5.41 83.01 -71.34 29.53 37.13 41.4 -5.21 14.62 14.58 -32.92 -9.86 1.04 -10.69 -34.48 -20.48 -27.18 -42.05 60.21 -9.17 16.98 4.93 29.6
65.84 43.3 93.24 -141.47 6.4 -1.4 -136.16 -70.06 137.55 180.0 28.24 180.0 -6.41 -19.11 13.45 -81.15 -65.66 100.71 180.0 41.8 -180.0 -14.79 -2.11 2.56 7.47 13.56 -1.58 1.85 3.56 -0.55 2.99 5.98 -0.85 -0.35 -1.19 0.01 -0.35 -1.19 0.01 -6.52 -21.32 1.38 21.44 -7.61 -5.02 85.55 -71.28 26.22 35.55 40.01 -6.01 18.03 16.91 -33.53 -10.01 1.62 -9.95 -33.59 -26.99 -29.12 -46.1 64.14 -16.73 20.07 -1.28 33.11
65.83 43.66 93.19 -141.3 6.46 -1.37 -135.43 -70.71 136.76 180.0 28.86 180.0 -6.21 -18.73 13.82 -80.6 -66.1 100.09 180.0 42.21 180.0 -14.26 -2.0 2.73 7.48 13.33 -1.73 1.85 3.5 -0.59 2.99 5.89 -0.91 -0.37 -1.19 0.03 -0.37 -1.19 0.03 -6.94 -21.2 1.85 22.14 -7.91 -5.64 88.13 -70.98 22.86 33.93 38.39 -6.92 20.91 18.76 -34.1 -9.86 1.2 -9.72 -33.27 -27.35 -30.06 -46.3 63.67 -17.33 20.45 -1.32 33.61
65.84 44.25 93.28 -141.09 6.59 -1.32 -134.77 -71.41 135.99 180.0 29.59 180.0 -5.93 -18.39 14.27 -79.74 -67.19 99.27 -180.0 42.9 -180.0 -12.82 -2.15 3.19 7.35 13.27 -1.75 1.82 3.48 -0.59 2.93 5.86 -0.91 -0.37 -1.2 0.04 -0.37 -1.2 0.04 -7.14 -21.35 2.04 22.15 -7.89 -5.64 93.07 -69.56 17.82 43.68 44.21 -5.61 19.39 15.23 -33.33 -9.55 0.34 -9.73 -33.08 -27.41 -30.93 -46.57 63.46 -18.06 20.69 -0.49 33.95
65.82 44.9 93.37 -140.85 6.78 -1.23 -134.65 -72.21 135.69 -180.0 30.4 180.0 -5.51 -18.04 14.84 -78.88 -68.03 98.11 180.0 43.67 -180.0 -12.02 -2.19 3.27 7.19 13.18 -1.79 1.78 3.46 -0.6 2.87 5.81 -0.93 -0.38 -1.21 0.05 -0.38 -1.21 0.05 -7.31 -21.46 2.21 22.16 -7.89 -5.64 97.55 -67.91 13.19 45.4 44.38 -6.23 18.73 14.46 -32.76 -9.26 -0.38 -9.76 -33.07 -27.36 -31.57 -46.87 63.52 -18.74 20.92 -0.14 34.08
65.73 45.7 93.44 -140.6 7.04 -1.16 -134.78 -73.09 135.55 -180.0 31.31 180.0 -4.92 -17.73 15.46 -77.37 -68.91 96.12 -180.0 44.63 180.0 -10.97 -2.33 3.16 7.02 13.04 -1.83 1.74 3.42 -0.6 2.8 5.74 -0.94 -0.38 -1.21 0.05 -0.38 -1.22 0.05 -7.45 -21.54 2.34 23.08 -8.36 -6.73 99.85 -67.14 9.87 54.28 47.9 -5.12 13.09 10.11 -29.45 -9.03 -1.02 -9.78 -33.22 -27.18 -32.03 -47.11 63.91 -19.28 21.08 -1.18 33.88
65.56 46.53 93.48 -140.37 7.33 -1.12 -134.81 -73.96 135.32 -180.0 32.35 180.0 -4.3 -17.41 16.06 -75.63 -69.88 94.21 -180.0 45.57 -180.0 -9.96 -2.46 3.31 6.87 12.88 -1.85 1.7 3.37 -0.6 2.74 5.67 -0.94 -0.39 -1.22 0.06 -0.39 -1.22 0.06 -7.57 -21.6 2.45 24.09 -8.83 -7.91 102.1 -66.38 6.47 55.04 48.07 -6.18 12.54 9.62 -28.82 -8.85 -1.57 -9.75 -33.41 -26.95 -32.42 -47.42 64.63 -19.79 21.09 -2.06 33.29
65.34 47.38 93.52 -140.14 7.58 -1.11 -134.31 -74.86 134.66 180.0 33.45 180.0 -3.82 -17.21 16.78 -73.53 -70.8 91.96 180.0 46.52 -180.0 -9.01 -2.48 3.41 6.73 12.74 -1.86 1.66 3.33 -0.6 2.68 5.6 -0.94 -0.39 -1.22 0.06 -0.39 -1.22 0.06 -7.68 -21.65 2.56 27.29 -9.81 -11.89 101.45 -68.16 3.93 55.51 48.32 -7.32 12.01 9.16 -28.24 -8.74 -2.06 -9.66 -33.63 -26.65 -32.73 -47.71 65.54 -20.19 20.45 -0.61 31.31
65.08 48.25 93.49 -139.94 7.86 -1.1 -133.84 -75.74 134.11 -180.0 34.46 -180.0 -3.43 -17.21 17.64 -70.9 -71.64 89.26 180.0 47.51 180.0 -8.08 -2.55 3.49 6.6 12.59 -1.86 1.63 3.29 -0.59 2.63 5.53 -0.93 -0.4 -1.22 0.07 -0.4 -1.23 0.07 -7.8 -21.69 2.69 28.4 -9.91 -13.39 104.41 -67.57 -0.59 55.76 48.57 -8.48 11.49 8.71 -27.68 -8.63 -2.53 -9.54 -33.9 -26.27 -33.02 -47.94 66.52 -20.51 20.15 -0.4 30.27
64.86 49.12 93.38 -139.74 8.14 -1.09 -132.95 -76.38 133.19 180.0 35.55 -180.0 -3.27 -17.13 18.39 -67.99 -72.3 86.36 180.0 48.54 180.0 -7.21 -2.57 3.57 6.48 12.43 -1.87 1.6 3.25 -0.59 2.58 5.46 -0.93 -0.4 -1.23 0.07 -0.4 -1.23 0.07 -7.93 -21.74 2.85 29.51 -9.87 -15.06 107.53 -67.09 -5.41 55.82 48.76 -9.61 11.13 8.47 -27.25 -8.53 -3.0 -9.42 -34.25 -25.83 -33.25 -47.98 67.49 -20.72 19.79 -0.34 29.35
64.67 49.94 93.15 -139.56 8.41 -1.03 -132.21 -77.02 132.39 180.0 36.27 180.0 -3.11 -17.46 19.13 -64.68 -72.8 83.11 -180.0 49.57 -180.0 -6.41 -2.63 3.67 6.35 12.28 -1.9 1.57 3.21 -0.6 2.53 5.39 -0.94 -0.4 -1.23 0.08 -0.41 -1.24 0.08 -8.09 -21.81 3.04 30.62 -9.81 -16.8 110.36 -66.69 -10.09 55.86 48.83 -10.6 10.62 8.08 -26.76 -8.41 -3.47 -9.34 -34.62 -25.31 -33.46 -47.9 68.29 -20.78 19.45 -0.31 28.56
64.49 50.78 92.88 -139.38 8.67 -0.95 -131.14 -77.66 131.19 180.0 37.25 180.0 -2.95 -17.7 19.74 -61.05 -73.19 79.54 -180.0 50.66 -180.0 -5.63 -2.65 3.85 6.23 12.14 -1.95 1.54 3.17 -0.61 2.48 5.32 -0.96 -0.41 -1.24 0.09 -0.41 -1.24 0.09 -8.29 -21.88 3.25 31.72 -9.79 -18.61 112.82 -66.39 -14.44 55.84 48.83 -11.52 10.1 7.74 -26.31 -8.26 -3.96 -9.29 -34.51 -24.93 -33.85 -48.61 69.05 -21.41 19.15 -0.25 27.93
64.37 51.64 92.56 -139.23 8.99 -0.84 -130.28 -78.33 130.2 180.0 38.21 180.0 -2.74 -18.12 20.37 -57.39 -73.48 75.95 -180.0 51.82 -180.0 -4.91 -2.71 4.02 6.12 11.96 -2.02 1.51 3.12 -0.62 2.43 5.24 -0.98 -0.42 -1.24 0.1 -0.42 -1.25 0.1 -8.51 -21.94 3.49 32.88 -9.91 -20.48 114.46 -66.25 -18.09 55.91 48.7 -12.36 9.58 7.43 -25.83 -8.1 -4.48 -9.23 -34.41 -24.53 -34.25 -49.09 69.53 -21.83 18.96 -0.2 27.47
64.29 52.49 92.19 -139.07 9.34 -0.72 -129.25 -79.21 129.02 180.0 39.3 180.0 -2.38 -18.67 21.12 -53.81 -73.62 72.47 -180.0 53.01 -180.0 -4.25 -2.78 4.21 6.0 11.77 -2.1 1.48 3.07 -0.64 2.38 5.16 -1.01 -0.43 -1.25 0.11 -0.43 -1.25 0.11 -8.77 -21.98 3.71 34.04 -10.11 -22.36 115.77 -66.18 -21.4 55.89 48.55 -13.2 8.09 5.92 -24.59 -7.9 -5.09 -9.16 -34.29 -24.05 -34.74 -49.3 69.71 -21.96 18.9 -0.15 27.14
64.23 53.32 91.81 -138.9 9.68 -0.6 -127.72 -80.18 127.37 -180.0 40.43 -180.0 -1.97 -19.36 21.92 -50.24 -73.68 69.01 -180.0 54.22 -180.0 -3.66 -2.87 4.41 5.88 11.58 -2.18 1.45 3.02 -0.65 2.33 5.08 -1.04 -0.44 -1.25 0.12 -0.44 -1.26 0.12 -9.06 -22.01 3.93 35.22 -10.36 -24.2 116.47 -66.18 -24.25 55.95 48.33 -13.9 6.67 4.43 -23.39 -7.71 -5.66 -9.06 -34.18 -23.64 -35.22 -49.31 69.71 -21.92 18.9 -0.2 26.92
64.17 54.15 91.44 -138.74 10.0 -0.49 -125.76 -81.11 125.27 -180.0 41.54 -180.0 -1.55 -20.07 22.7 -46.81 -73.64 65.65 180.0 55.44 180.0 -3.14 -2.96 4.57 5.76 11.4 -2.25 1.42 2.97 -0.66 2.28 5.0 -1.06 -0.45 -1.26 0.13 -0.46 -1.26 0.13 -9.38 -22.02 4.13 36.37 -10.62 -26.01 117.13 -66.19 -27.03 55.88 48.14 -14.64 6.3 4.15 -22.99 -7.52 -6.23 -8.93 -34.07 -23.23 -35.72 -49.18 69.53 -21.72 19.0 -0.25 26.75
64.1 54.99 91.12 -138.57 10.33 -0.39 -123.42 -82.02 122.8 -180.0 42.69 -180.0 -1.1 -20.72 23.48 -43.6 -73.53 62.46 180.0 56.66 180.0 -2.73 -3.06 4.61 5.64 11.22 -2.31 1.39 2.92 -0.68 2.23 4.91 -1.08 -0.47 -1.26 0.13 -0.47 -1.26 0.13 -9.71 -22.0 4.31 37.57 -10.87 -27.89 117.32 -66.34 -29.53 55.95 47.81 -15.37 5.92 3.9 -22.5 -7.32 -6.79 -8.81 -33.97 -22.83 -36.2 -48.98 69.21 -21.4 19.17 -0.26 26.63
